<svg width="25" height="18" viewBox="0 0 25 18" fill="none" xmlns="http://www.w3.org/2000/svg">
<path d="M22.6562 0C23.9502 0 25 1.00734 25 2.25C25 2.95781 24.6533 3.62344 24.0625 4.05L13.4375 11.7C12.8809 12.0984 12.1191 12.0984 11.5625 11.7L0.9375 4.05C0.347315 3.62344 0 2.95781 0 2.25C0 1.00734 1.04932 0 2.34375 0H22.6562ZM10.625 12.9C11.7383 13.7016 13.2617 13.7016 14.375 12.9L25 5.25V15C25 16.6547 23.5986 18 21.875 18H3.125C1.39893 18 0 16.6547 0 15V5.25L10.625 12.9Z" fill="#FFFBF1"/>
</svg>
