<svg width="20" height="21" viewBox="0 0 20 21" fill="none" xmlns="http://www.w3.org/2000/svg">
<path d="M19.9706 15.1188L19.0624 19.0567C18.9348 19.6134 18.4455 20.0029 17.8724 20.0029C8.01638 20.0021 0 11.9857 0 2.12934C0 1.55663 0.389451 1.06674 0.946183 0.939772L4.88406 0.0314829C5.45755 -0.10142 6.04354 0.196264 6.28184 0.739362L8.0992 4.97804C8.31165 5.47731 8.16835 6.05901 7.74839 6.40201L5.64507 8.09084C6.97253 10.795 9.17118 12.9936 11.8761 14.3219L13.5982 12.2201C13.9376 11.799 14.5236 11.6533 15.0229 11.8695L19.2616 13.6865C19.7714 13.9547 20.1035 14.5485 19.9706 15.1188Z" fill="#FFFBF1"/>
</svg>
